<svg width="140" height="34" fill="none" xmlns="http://www.w3.org/2000/svg"><g clip-path="url(#a)"><path d="M.09.505h7.528c2.617 0 4.526.616 5.727 1.848 1.2 1.2 1.801 3.063 1.801 5.588v1.986c0 3.356-1.109 5.48-3.325 6.374v.092c1.231.37 2.093 1.124 2.586 2.263.524 1.14.785 2.663.785 4.572v5.681c0 .924.03 1.678.092 2.263.062.555.216 1.109.462 1.663h-5.172a7.41 7.41 0 0 1-.37-1.478c-.062-.462-.092-1.293-.092-2.494v-5.912c0-1.478-.247-2.51-.74-3.094-.461-.585-1.277-.878-2.447-.878H5.17v13.856H.09V.505Zm6.927 13.856c1.016 0 1.77-.262 2.263-.785.524-.524.786-1.401.786-2.633V8.45c0-1.17-.216-2.017-.647-2.54-.4-.524-1.047-.785-1.94-.785H5.17v9.237h1.848ZM18.717.505h13.856v4.619h-8.776v8.544h6.974v4.619h-6.974v9.93h8.776v4.618H18.717V.505Zm20.704 0h6.882l5.265 32.33h-5.08l-.924-6.42v.093H39.79l-.924 6.327h-4.711L39.421.505Zm5.542 21.615L42.7 6.14h-.092l-2.217 15.98h4.572Zm16.138 11.177c-2.432 0-4.295-.693-5.588-2.078-1.263-1.386-1.894-3.341-1.894-5.866V7.987c0-2.525.631-4.48 1.894-5.865C56.806.736 58.669.043 61.1.043c2.433 0 4.28.693 5.543 2.079 1.293 1.385 1.94 3.34 1.94 5.865v3.418H63.78V7.664c0-2.001-.847-3.002-2.54-3.002-1.694 0-2.54 1-2.54 3.002v18.059c0 1.97.846 2.955 2.54 2.955 1.693 0 2.54-.985 2.54-2.956v-4.941h4.803v4.572c0 2.525-.646 4.48-1.94 5.865-1.262 1.386-3.11 2.079-5.542 2.079ZM75.595 5.124h-5.311V.505h15.703v4.619h-5.312v27.711h-5.08V5.124Z" fill="#000"/><path d="M92.372.505h6.882l5.265 32.33h-5.08l-.924-6.42v.093h-5.773l-.924 6.327h-4.71L92.371.505Zm5.543 21.615L95.65 6.14h-.092l-2.217 15.98h4.573ZM106.984.505h7.482c2.525 0 4.418.678 5.681 2.032 1.262 1.355 1.893 3.341 1.893 5.958v3.187c0 2.617-.631 4.603-1.893 5.958-1.263 1.355-3.156 2.032-5.681 2.032h-2.402v13.163h-5.08V.505Zm7.482 14.549c.831 0 1.447-.231 1.847-.693.431-.462.647-1.247.647-2.356V8.172c0-1.109-.216-1.894-.647-2.356-.4-.461-1.016-.692-1.847-.692h-2.402v9.93h2.402ZM124.8.505h7.482c2.524 0 4.418.678 5.68 2.032 1.263 1.355 1.894 3.341 1.894 5.958v3.187c0 2.617-.631 4.603-1.894 5.958-1.262 1.355-3.156 2.032-5.68 2.032h-2.402v13.163h-5.08V.505Zm7.482 14.549c.831 0 1.447-.231 1.847-.693.431-.462.647-1.247.647-2.356V8.172c0-1.109-.216-1.894-.647-2.356-.4-.461-1.016-.692-1.847-.692h-2.402v9.93h2.402Z" fill="#1F2B6C"/></g><defs><clipPath id="a"><path fill="#fff" d="M0 0h140v33.557H0z"/></clipPath></defs></svg>